<svg width="24" height="24" viewBox="0 0 24 24" fill="none" xmlns="http://www.w3.org/2000/svg">
<path d="M6 16C4.9 16 4 16.9 4 18C4 19.1 4.9 20 6 20C7.1 20 8 19.1 8 18C8 16.9 7.1 16 6 16Z" fill="#292D32"/>
<path d="M6 4C4.9 4 4 4.9 4 6C4 7.1 4.9 8 6 8C7.1 8 8 7.1 8 6C8 4.9 7.1 4 6 4Z" fill="#292D32"/>
<path d="M16 6C16 7.1 16.9 8 18 8C19.1 8 20 7.1 20 6C20 4.9 19.1 4 18 4C16.9 4 16 4.9 16 6Z" fill="#292D32"/>
<path d="M16 18C16 19.1 16.9 20 18 20C19.1 20 20 19.1 20 18C20 16.9 19.1 16 18 16C16.9 16 16 16.9 16 18Z" fill="#292D32"/>
</svg>
