<svg width="24" height="24" viewBox="0 0 24 24" fill="none" xmlns="http://www.w3.org/2000/svg">
<path d="M10.75 6.5H1.75C1.34 6.5 1 6.16 1 5.75C1 5.34 1.34 5 1.75 5H10.75C11.16 5 11.5 5.34 11.5 5.75C11.5 6.16 11.16 6.5 10.75 6.5Z" fill="#AAAAAA"/>
<path d="M7.75 12.5H1.75C1.34 12.5 1 12.16 1 11.75C1 11.34 1.34 11 1.75 11H7.75C8.16 11 8.5 11.34 8.5 11.75C8.5 12.16 8.16 12.5 7.75 12.5Z" fill="#AAAAAA"/>
<path d="M5.75 18.5H1.75C1.34 18.5 1 18.16 1 17.75C1 17.34 1.34 17 1.75 17H5.75C6.16 17 6.5 17.34 6.5 17.75C6.5 18.16 6.16 18.5 5.75 18.5Z" fill="#AAAAAA"/>
<path d="M21.6102 4.42434C21.0202 3.97434 20.2102 3.88435 19.2602 4.14435L14.9102 5.32434C13.7402 5.64434 13.0202 6.59435 13.0202 7.79439V10.3444V14.0244C12.6002 13.7844 12.1102 13.6344 11.5902 13.6344C9.9802 13.6344 8.66016 14.9444 8.66016 16.5644C8.66016 18.1744 9.9702 19.4944 11.5902 19.4944C13.2102 19.4944 14.5202 18.1844 14.5202 16.5644V10.9144L21.0002 9.14439V12.5744C20.5802 12.3344 20.0902 12.1844 19.5702 12.1844C17.9602 12.1844 16.6402 13.4944 16.6402 15.1144C16.6402 16.7244 17.9502 18.0444 19.5702 18.0444C21.1902 18.0444 22.5002 16.7344 22.5002 15.1144V8.16439V6.61434C22.5002 5.60434 22.2002 4.86434 21.6102 4.42434ZM11.5902 17.9944C10.8002 17.9944 10.1602 17.3544 10.1602 16.5644C10.1602 15.7744 10.8002 15.1344 11.5902 15.1344C12.3802 15.1344 13.0202 15.7744 13.0202 16.5644C13.0202 17.3544 12.3802 17.9944 11.5902 17.9944ZM19.5702 16.5444C18.7802 16.5444 18.1402 15.9044 18.1402 15.1144C18.1402 14.3244 18.7802 13.6844 19.5702 13.6844C20.3602 13.6844 21.0002 14.3244 21.0002 15.1144C21.0002 15.9044 20.3602 16.5444 19.5702 16.5444Z" fill="#AAAAAA"/>
</svg>
