<svg width="24" height="24" viewBox="0 0 24 24" fill="none" xmlns="http://www.w3.org/2000/svg">
<path d="M17 22H7C4 22 2 20.5 2 17V12C2 8.5 4 7 7 7H17C20 7 22 8.5 22 12V17C22 20.5 20 22 17 22Z" stroke="#292D32" stroke-width="1.5" stroke-miterlimit="10" stroke-linecap="round" stroke-linejoin="round"/>
<path d="M6 4.5H18" stroke="#292D32" stroke-width="1.5" stroke-miterlimit="10" stroke-linecap="round" stroke-linejoin="round"/>
<path d="M9 2H15" stroke="#292D32" stroke-width="1.5" stroke-miterlimit="10" stroke-linecap="round" stroke-linejoin="round"/>
<path d="M8.88952 19.1091C9.64615 19.1091 10.2595 18.4957 10.2595 17.7391C10.2595 16.9824 9.64615 16.3691 8.88952 16.3691C8.13289 16.3691 7.51953 16.9824 7.51953 17.7391C7.51953 18.4957 8.13289 19.1091 8.88952 19.1091Z" fill="#292D32" stroke="#292D32" stroke-width="1.5" stroke-linecap="round" stroke-linejoin="round"/>
<path d="M15.2798 16.83V11.4799C15.2798 10.3399 14.5698 10.18 13.8398 10.38L11.0998 11.13C10.5998 11.27 10.2598 11.6599 10.2598 12.2299V13.18V13.82V17.74" stroke="#292D32" stroke-width="1.5" stroke-linecap="round" stroke-linejoin="round"/>
<path d="M13.9091 18.2009C14.6658 18.2009 15.2792 17.5875 15.2792 16.8309C15.2792 16.0742 14.6658 15.4609 13.9091 15.4609C13.1525 15.4609 12.5391 16.0742 12.5391 16.8309C12.5391 17.5875 13.1525 18.2009 13.9091 18.2009Z" fill="#292D32" stroke="#292D32" stroke-width="1.5" stroke-linecap="round" stroke-linejoin="round"/>
<path d="M10.2598 13.8309L15.2798 12.4609" stroke="#292D32" stroke-width="1.5" stroke-linecap="round" stroke-linejoin="round"/>
<rect x="10.5664" y="11.3477" width="4.02539" height="2" transform="rotate(-15 10.5664 11.3477)" fill="#292D32"/>
</svg>
