<svg width="24" height="24" viewBox="0 0 24 24" fill="none" xmlns="http://www.w3.org/2000/svg">
<path d="M9 22H15C20 22 22 20 22 15V9C22 4 20 2 15 2H9C4 2 2 4 2 9V15C2 20 4 22 9 22Z" stroke="#292D32" stroke-width="1.5" stroke-linecap="round" stroke-linejoin="round"/>
<path d="M17.0009 11.8407H14.3209C13.6109 11.8407 13.1309 11.3007 13.1309 10.6507V9.1607C13.1309 8.5107 13.6109 7.9707 14.3209 7.9707H15.8109C16.4609 7.9707 17.0009 8.5107 17.0009 9.1607V11.8407Z" fill="#292D32" stroke="#292D32" stroke-width="1.5" stroke-linecap="round" stroke-linejoin="round"/>
<path d="M17.0002 11.8398C17.0002 14.6298 16.4802 15.0998 14.9102 16.0298" stroke="#292D32" stroke-width="1.5" stroke-linecap="round" stroke-linejoin="round"/>
<path d="M10.8602 11.8407H8.18023C7.47023 11.8407 6.99023 11.3007 6.99023 10.6507V9.1607C6.99023 8.5107 7.47023 7.9707 8.18023 7.9707H9.67023C10.3202 7.9707 10.8602 8.5107 10.8602 9.1607V11.8407Z" fill="#292D32" stroke="#292D32" stroke-width="1.5" stroke-linecap="round" stroke-linejoin="round"/>
<path d="M10.8595 11.8398C10.8595 14.6298 10.3395 15.0998 8.76953 16.0298" stroke="#292D32" stroke-width="1.5" stroke-linecap="round" stroke-linejoin="round"/>
</svg>
