<svg id="Capa_1" data-name="Capa 1" xmlns="http://www.w3.org/2000/svg" viewBox="0 0 16 17.22"><title>menu</title><path d="M17.54,8.31a2.46,2.46,0,1,0-2.46-2.46A2.46,2.46,0,0,0,17.54,8.31Z" transform="translate(-4 -3.39)" fill="#292d32"/><path d="M6.46,8.31A2.46,2.46,0,1,0,4,5.85,2.46,2.46,0,0,0,6.46,8.31Z" transform="translate(-4 -3.39)" fill="#292d32"/><path d="M17.54,20.61a2.46,2.46,0,1,0-2.46-2.46A2.46,2.46,0,0,0,17.54,20.61Z" transform="translate(-4 -3.39)" fill="#292d32"/><path d="M6.46,20.61A2.46,2.46,0,1,0,4,18.15,2.46,2.46,0,0,0,6.46,20.61Z" transform="translate(-4 -3.39)" fill="#292d32"/></svg>