<svg id="Capa_1" data-name="Capa 1" xmlns="http://www.w3.org/2000/svg" viewBox="0 0 17 18.22"><title>menu_bold</title><path d="M17.54,8.81a3,3,0,1,0-3-3A3,3,0,0,0,17.54,8.81Z" transform="translate(-3.5 -2.89)" fill="#292d32"/><path d="M6.46,8.81a3,3,0,1,0-3-3A3,3,0,0,0,6.46,8.81Z" transform="translate(-3.5 -2.89)" fill="#292d32"/><path d="M17.54,21.11a3,3,0,1,0-3-3A3,3,0,0,0,17.54,21.11Z" transform="translate(-3.5 -2.89)" fill="#292d32"/><path d="M6.46,21.11a3,3,0,1,0-3-3A3,3,0,0,0,6.46,21.11Z" transform="translate(-3.5 -2.89)" fill="#292d32"/></svg>