<svg id="Capa_1" data-name="Capa 1" xmlns="http://www.w3.org/2000/svg" viewBox="0 0 15.64 20"><title>microphone_bold</title><path d="M19.12,9.12a.7.7,0,0,0-.7.7V11.4a6.42,6.42,0,0,1-12.84,0V9.81a.7.7,0,0,0-1.4,0v1.58a7.83,7.83,0,0,0,7.12,7.78V21.3a.7.7,0,0,0,1.4,0V19.17a7.83,7.83,0,0,0,7.12-7.78V9.81A.71.71,0,0,0,19.12,9.12Z" transform="translate(-4.18 -2)" fill="#292d32"/><path d="M12,2A4.42,4.42,0,0,0,7.58,6.42v5.12a4.42,4.42,0,0,0,8.84,0V6.42A4.42,4.42,0,0,0,12,2Zm1.31,7a.58.58,0,0,1-.56.43l-.15,0a2.19,2.19,0,0,0-1.19,0,.58.58,0,1,1-.3-1.12,3.44,3.44,0,0,1,1.8,0A.58.58,0,0,1,13.31,9ZM13.84,7a.58.58,0,0,1-.55.38.69.69,0,0,1-.2,0,3.14,3.14,0,0,0-2.18,0A.59.59,0,0,1,10.16,7a.58.58,0,0,1,.35-.74,4.36,4.36,0,0,1,3,0A.58.58,0,0,1,13.84,7Z" transform="translate(-4.18 -2)" fill="#292d32"/></svg>