<svg id="Capa_1" data-name="Capa 1" xmlns="http://www.w3.org/2000/svg" viewBox="0 0 21.5 15.49"><title>music_list_bold</title><path d="M10.75,6.5h-9a.75.75,0,0,1,0-1.5h9a.75.75,0,0,1,0,1.5Z" transform="translate(-1 -4)" fill="#292d32"/><path d="M7.75,12.5h-6a.75.75,0,0,1,0-1.5h6a.75.75,0,0,1,0,1.5Z" transform="translate(-1 -4)" fill="#292d32"/><path d="M5.75,18.5h-4a.75.75,0,0,1,0-1.5h4a.75.75,0,0,1,0,1.5Z" transform="translate(-1 -4)" fill="#292d32"/><path d="M21.61,4.42a2.62,2.62,0,0,0-2.35-.28L14.91,5.32A2.48,2.48,0,0,0,13,7.79V14a2.89,2.89,0,0,0-1.43-.39,2.93,2.93,0,1,0,2.93,2.93V10.91L21,9.14v3.43a2.89,2.89,0,0,0-1.43-.39,2.93,2.93,0,1,0,2.93,2.93V6.61A2.57,2.57,0,0,0,21.61,4.42ZM11.59,18A1.43,1.43,0,1,1,13,16.56,1.43,1.43,0,0,1,11.59,18Zm8-1.45A1.43,1.43,0,1,1,21,15.11,1.43,1.43,0,0,1,19.57,16.54Z" transform="translate(-1 -4)" fill="#292d32"/></svg>