<svg id="Capa_1" data-name="Capa 1" xmlns="http://www.w3.org/2000/svg" xmlns:xlink="http://www.w3.org/1999/xlink" viewBox="0 0 20 20.75"><defs><clipPath id="clip-path"><rect width="20" height="20.75" fill="none"/></clipPath></defs><title>music_albums_bold</title><g clip-path="url(#clip-path)"><path d="M16,4H4A.75.75,0,0,1,4,2.5H16A.75.75,0,0,1,16,4Z" fill="#292d32"/><path d="M13,1.5H7A.75.75,0,0,1,7,0h6a.75.75,0,0,1,0,1.5Z" fill="#292d32"/><path d="M11.91,15a.66.66,0,0,0-.35.11.53.53,0,0,0-.22.27.64.64,0,0,0,0,.36.62.62,0,0,0,.49.49.64.64,0,0,0,.36,0,.53.53,0,0,0,.27-.22.66.66,0,0,0,.11-.35.69.69,0,0,0,0-.24.57.57,0,0,0-.33-.33.69.69,0,0,0-.24,0Z" fill="#292d32"/><path d="M7.51,16.49a.59.59,0,0,0,0-.23.46.46,0,0,0-.13-.2.66.66,0,0,0-.2-.14.66.66,0,0,0-.68.14.62.62,0,0,0-.18.44.6.6,0,0,0,.18.44.62.62,0,0,0,.44.18.63.63,0,0,0,.44-.19.65.65,0,0,0,.18-.44Z" fill="#292d32"/><path d="M4,5.75H16a4,4,0,0,1,4,4v7a4,4,0,0,1-4,4H4a4,4,0,0,1-4-4v-7a4,4,0,0,1,4-4Z" fill="#292d32" fill-rule="evenodd"/></g></svg>