<svg id="Capa_1" data-name="Capa 1" xmlns="http://www.w3.org/2000/svg" viewBox="0 0 20 20.75"><title>music-playlist</title><path d="M18,5.25H6a.75.75,0,0,1,0-1.5H18a.75.75,0,0,1,0,1.5Z" transform="translate(-2 -1.25)" fill="#292d32"/><path d="M15,2.75H9a.75.75,0,0,1,0-1.5h6a.75.75,0,0,1,0,1.5Z" transform="translate(-2 -1.25)" fill="#292d32"/><path d="M13.91,16.21a.62.62,0,1,0,.62.62A.62.62,0,0,0,13.91,16.21Z" transform="translate(-2 -1.25)" fill="#292d32"/><path d="M9.51,17.74a.61.61,0,0,0-.62-.61.62.62,0,0,0,0,1.24A.64.64,0,0,0,9.51,17.74Z" transform="translate(-2 -1.25)" fill="#292d32"/><path d="M18,7H6a4,4,0,0,0-4,4v7a4,4,0,0,0,4,4H18a4,4,0,0,0,4-4V11A4,4,0,0,0,18,7Zm-2,5.46v4.37s0,0,0,.05a2.14,2.14,0,1,1-1.49-2.07V13.44L11,14.4v3.33h0a2.15,2.15,0,1,1-1.5-2v-3.5a1.84,1.84,0,0,1,1.4-1.83l2.73-.75A1.75,1.75,0,0,1,16,11.47Z" transform="translate(-2 -1.25)" fill="#292d32"/></svg>