<svg id="Capa_1" data-name="Capa 1" xmlns="http://www.w3.org/2000/svg" viewBox="0 0 19.99 20"><title>music_square_bold</title><path d="M14.54,13.67a.65.65,0,1,0,.65.65A.66.66,0,0,0,14.54,13.67Z" transform="translate(-2 -2)" fill="#292d32"/><path d="M9.06,14.66a.65.65,0,1,0,.65.65A.65.65,0,0,0,9.06,14.66Z" transform="translate(-2 -2)" fill="#292d32"/><path d="M16.19,2H7.81C4.17,2,2,4.17,2,7.81v8.37C2,19.83,4.17,22,7.81,22h8.37C19.82,22,22,19.83,22,16.19V7.81C22,4.17,19.83,2,16.19,2Zm.69,7.55v4.76a2.37,2.37,0,1,1-1.69-2.24V10.65l-3.78,1v3.65a2.37,2.37,0,1,1-1.69-2.27V9.29a2,2,0,0,1,1.54-2l3-.82a2.08,2.08,0,0,1,1.9.25,2.1,2.1,0,0,1,.74,1.77Z" transform="translate(-2 -2)" fill="#292d32"/></svg>