<svg id="Capa_1" data-name="Capa 1" xmlns="http://www.w3.org/2000/svg" viewBox="0 0 21.51 20.38"><title>setting_linear</title><path d="M12,15a3,3,0,1,0-3-3A3,3,0,0,0,12,15Z" transform="translate(-1.25 -1.81)" fill="none" stroke="#292d32" stroke-linecap="round" stroke-linejoin="round" stroke-width="1.5"/><path d="M2,12.88V11.12a1.91,1.91,0,0,1,1.9-1.9c1.81,0,2.55-1.28,1.64-2.85a1.9,1.9,0,0,1,.7-2.59L8,2.79a1.67,1.67,0,0,1,2.28.6l.11.19c.9,1.57,2.38,1.57,3.29,0l.11-.19A1.67,1.67,0,0,1,16,2.79l1.73,1a1.9,1.9,0,0,1,.7,2.59c-.91,1.57-.17,2.85,1.64,2.85a1.91,1.91,0,0,1,1.9,1.9v1.76a1.91,1.91,0,0,1-1.9,1.9c-1.81,0-2.55,1.28-1.64,2.85a1.9,1.9,0,0,1-.7,2.59l-1.73,1a1.67,1.67,0,0,1-2.28-.6l-.11-.19c-.9-1.57-2.38-1.57-3.29,0l-.11.19a1.67,1.67,0,0,1-2.28.6l-1.73-1a1.9,1.9,0,0,1-.7-2.59c.91-1.57.17-2.85-1.64-2.85A1.91,1.91,0,0,1,2,12.88Z" transform="translate(-1.25 -1.81)" fill="none" stroke="#292d32" stroke-linecap="round" stroke-linejoin="round" stroke-width="1.5"/></svg>